<svg width="1024" height="1024" viewBox="0 0 1024 1024" xmlns="http://www.w3.org/2000/svg">
  <defs>
    <radialGradient id="bg" cx="50%" cy="45%" r="55%">
      <stop offset="0%" stop-color="#7C6FFF"/>
      <stop offset="100%" stop-color="#1A1560"/>
    </radialGradient>
    <radialGradient id="glow" cx="50%" cy="50%" r="50%">
      <stop offset="0%" stop-color="#9D94FF" stop-opacity="0.4"/>
      <stop offset="100%" stop-color="#7C6FFF" stop-opacity="0"/>
    </radialGradient>
  </defs>
  <rect width="1024" height="1024" rx="230" fill="#0F0D2E"/>
  <ellipse cx="512" cy="480" rx="380" ry="380" fill="url(#glow)"/>
  <circle cx="512" cy="460" r="300" fill="url(#bg)"/>
  <circle cx="512" cy="460" r="295" fill="none" stroke="#9D94FF" stroke-width="2" stroke-opacity="0.5"/>
  <rect x="462" y="310" width="100" height="180" rx="50" fill="white" fill-opacity="0.95"/>
  <path d="M390 460 Q390 570 512 570 Q634 570 634 460" fill="none" stroke="white" stroke-width="12" stroke-linecap="round"/>
  <line x1="512" y1="570" x2="512" y2="620" stroke="white" stroke-width="12" stroke-linecap="round"/>
  <line x1="462" y1="620" x2="562" y2="620" stroke="white" stroke-width="12" stroke-linecap="round"/>
  <path d="M360 420 Q340 460 360 500" fill="none" stroke="white" stroke-width="8" stroke-linecap="round" stroke-opacity="0.5"/>
  <path d="M320 395 Q290 460 320 525" fill="none" stroke="white" stroke-width="6" stroke-linecap="round" stroke-opacity="0.3"/>
  <path d="M664 420 Q684 460 664 500" fill="none" stroke="white" stroke-width="8" stroke-linecap="round" stroke-opacity="0.5"/>
  <path d="M704 395 Q734 460 704 525" fill="none" stroke="white" stroke-width="6" stroke-linecap="round" stroke-opacity="0.3"/>
  <text x="512" y="790" text-anchor="middle"
        font-family="-apple-system,Helvetica Neue,sans-serif"
        font-size="96" font-weight="700" fill="white" letter-spacing="16">ASTRA</text>
  <circle cx="512" cy="162" r="10" fill="#9D94FF" fill-opacity="0.8"/>
  <circle cx="790" cy="230" r="7" fill="#9D94FF" fill-opacity="0.5"/>
  <circle cx="234" cy="230" r="7" fill="#9D94FF" fill-opacity="0.5"/>
</svg>